<svg width="1363" height="163" viewBox="0 0 1363 163" fill="none" xmlns="http://www.w3.org/2000/svg">
<path d="M0 15C0 6.71573 6.71573 0 15 0H37V163H15C6.71573 163 0 156.284 0 148V15Z" fill="#424242"/>
<rect width="1097" height="163" transform="translate(37)" fill="#F0F0F0"/>
<path d="M101.203 53.5117H96.8203L96.7969 51.0977H100.477C101.125 51.0977 101.656 51.0156 102.07 50.8516C102.484 50.6797 102.793 50.4336 102.996 50.1133C103.207 49.7852 103.312 49.3867 103.312 48.918C103.312 48.3867 103.211 47.957 103.008 47.6289C102.812 47.3008 102.504 47.0625 102.082 46.9141C101.668 46.7656 101.133 46.6914 100.477 46.6914H98.0391V61H94.5234V43.9375H100.477C101.469 43.9375 102.355 44.0312 103.137 44.2188C103.926 44.4062 104.594 44.6914 105.141 45.0742C105.688 45.457 106.105 45.9414 106.395 46.5273C106.684 47.1055 106.828 47.793 106.828 48.5898C106.828 49.293 106.668 49.9414 106.348 50.5352C106.035 51.1289 105.539 51.6133 104.859 51.9883C104.188 52.3633 103.309 52.5703 102.223 52.6094L101.203 53.5117ZM101.051 61H95.8594L97.2305 58.2578H101.051C101.668 58.2578 102.172 58.1602 102.562 57.9648C102.953 57.7617 103.242 57.4883 103.43 57.1445C103.617 56.8008 103.711 56.4062 103.711 55.9609C103.711 55.4609 103.625 55.0273 103.453 54.6602C103.289 54.293 103.023 54.0117 102.656 53.8164C102.289 53.6133 101.805 53.5117 101.203 53.5117H97.8164L97.8398 51.0977H102.059L102.867 52.0469C103.906 52.0312 104.742 52.2148 105.375 52.5977C106.016 52.9727 106.48 53.4609 106.77 54.0625C107.066 54.6641 107.215 55.3086 107.215 55.9961C107.215 57.0898 106.977 58.0117 106.5 58.7617C106.023 59.5039 105.324 60.0625 104.402 60.4375C103.488 60.8125 102.371 61 101.051 61ZM116.484 58.1406V52.4922C116.484 52.0859 116.418 51.7383 116.285 51.4492C116.152 51.1523 115.945 50.9219 115.664 50.7578C115.391 50.5938 115.035 50.5117 114.598 50.5117C114.223 50.5117 113.898 50.5781 113.625 50.7109C113.352 50.8359 113.141 51.0195 112.992 51.2617C112.844 51.4961 112.77 51.7734 112.77 52.0938H109.395C109.395 51.5547 109.52 51.043 109.77 50.5586C110.02 50.0742 110.383 49.6484 110.859 49.2812C111.336 48.9062 111.902 48.6133 112.559 48.4023C113.223 48.1914 113.965 48.0859 114.785 48.0859C115.77 48.0859 116.645 48.25 117.41 48.5781C118.176 48.9062 118.777 49.3984 119.215 50.0547C119.66 50.7109 119.883 51.5312 119.883 52.5156V57.9414C119.883 58.6367 119.926 59.207 120.012 59.6523C120.098 60.0898 120.223 60.4727 120.387 60.8008V61H116.977C116.812 60.6562 116.688 60.2266 116.602 59.7109C116.523 59.1875 116.484 58.6641 116.484 58.1406ZM116.93 53.2773L116.953 55.1875H115.066C114.621 55.1875 114.234 55.2383 113.906 55.3398C113.578 55.4414 113.309 55.5859 113.098 55.7734C112.887 55.9531 112.73 56.1641 112.629 56.4062C112.535 56.6484 112.488 56.9141 112.488 57.2031C112.488 57.4922 112.555 57.7539 112.688 57.9883C112.82 58.2148 113.012 58.3945 113.262 58.5273C113.512 58.6523 113.805 58.7148 114.141 58.7148C114.648 58.7148 115.09 58.6133 115.465 58.4102C115.84 58.207 116.129 57.957 116.332 57.6602C116.543 57.3633 116.652 57.082 116.66 56.8164L117.551 58.2461C117.426 58.5664 117.254 58.8984 117.035 59.2422C116.824 59.5859 116.555 59.9102 116.227 60.2148C115.898 60.5117 115.504 60.7578 115.043 60.9531C114.582 61.1406 114.035 61.2344 113.402 61.2344C112.598 61.2344 111.867 61.0742 111.211 60.7539C110.562 60.4258 110.047 59.9766 109.664 59.4062C109.289 58.8281 109.102 58.1719 109.102 57.4375C109.102 56.7734 109.227 56.1836 109.477 55.668C109.727 55.1523 110.094 54.7188 110.578 54.3672C111.07 54.0078 111.684 53.7383 112.418 53.5586C113.152 53.3711 114.004 53.2773 114.973 53.2773H116.93ZM125.789 51.0273V61H122.414V48.3203H125.578L125.789 51.0273ZM125.297 54.2148H124.383C124.383 53.2773 124.504 52.4336 124.746 51.6836C124.988 50.9258 125.328 50.2812 125.766 49.75C126.203 49.2109 126.723 48.8008 127.324 48.5195C127.934 48.2305 128.613 48.0859 129.363 48.0859C129.957 48.0859 130.5 48.1719 130.992 48.3438C131.484 48.5156 131.906 48.7891 132.258 49.1641C132.617 49.5391 132.891 50.0352 133.078 50.6523C133.273 51.2695 133.371 52.0234 133.371 52.9141V61H129.973V52.9023C129.973 52.3398 129.895 51.9023 129.738 51.5898C129.582 51.2773 129.352 51.0586 129.047 50.9336C128.75 50.8008 128.383 50.7344 127.945 50.7344C127.492 50.7344 127.098 50.8242 126.762 51.0039C126.434 51.1836 126.16 51.4336 125.941 51.7539C125.73 52.0664 125.57 52.4336 125.461 52.8555C125.352 53.2773 125.297 53.7305 125.297 54.2148ZM139.312 42.9883V61H135.938V42.9883H139.312ZM147.305 48.3203L141.797 54.6016L138.844 57.5898L137.613 55.1523L139.957 52.1758L143.25 48.3203H147.305ZM143.801 61L140.051 55.1406L142.383 53.1016L147.691 61H143.801ZM161.883 46.8555L157.242 61H153.504L159.844 43.9375H162.223L161.883 46.8555ZM165.738 61L161.086 46.8555L160.711 43.9375H163.113L169.488 61H165.738ZM165.527 54.6484V57.4023H156.516V54.6484H165.527ZM176.098 58.5977C176.512 58.5977 176.879 58.5195 177.199 58.3633C177.52 58.1992 177.77 57.9727 177.949 57.6836C178.137 57.3867 178.234 57.0391 178.242 56.6406H181.418C181.41 57.5312 181.172 58.3242 180.703 59.0195C180.234 59.707 179.605 60.25 178.816 60.6484C178.027 61.0391 177.145 61.2344 176.168 61.2344C175.184 61.2344 174.324 61.0703 173.59 60.7422C172.863 60.4141 172.258 59.9609 171.773 59.3828C171.289 58.7969 170.926 58.1172 170.684 57.3438C170.441 56.5625 170.32 55.7266 170.32 54.8359V54.4961C170.32 53.5977 170.441 52.7617 170.684 51.9883C170.926 51.207 171.289 50.5273 171.773 49.9492C172.258 49.3633 172.863 48.9062 173.59 48.5781C174.316 48.25 175.168 48.0859 176.145 48.0859C177.184 48.0859 178.094 48.2852 178.875 48.6836C179.664 49.082 180.281 49.6523 180.727 50.3945C181.18 51.1289 181.41 52 181.418 53.0078H178.242C178.234 52.5859 178.145 52.2031 177.973 51.8594C177.809 51.5156 177.566 51.2422 177.246 51.0391C176.934 50.8281 176.547 50.7227 176.086 50.7227C175.594 50.7227 175.191 50.8281 174.879 51.0391C174.566 51.2422 174.324 51.5234 174.152 51.8828C173.98 52.2344 173.859 52.6367 173.789 53.0898C173.727 53.5352 173.695 54.0039 173.695 54.4961V54.8359C173.695 55.3281 173.727 55.8008 173.789 56.2539C173.852 56.707 173.969 57.1094 174.141 57.4609C174.32 57.8125 174.566 58.0898 174.879 58.293C175.191 58.4961 175.598 58.5977 176.098 58.5977ZM188.613 58.5977C189.027 58.5977 189.395 58.5195 189.715 58.3633C190.035 58.1992 190.285 57.9727 190.465 57.6836C190.652 57.3867 190.75 57.0391 190.758 56.6406H193.934C193.926 57.5312 193.688 58.3242 193.219 59.0195C192.75 59.707 192.121 60.25 191.332 60.6484C190.543 61.0391 189.66 61.2344 188.684 61.2344C187.699 61.2344 186.84 61.0703 186.105 60.7422C185.379 60.4141 184.773 59.9609 184.289 59.3828C183.805 58.7969 183.441 58.1172 183.199 57.3438C182.957 56.5625 182.836 55.7266 182.836 54.8359V54.4961C182.836 53.5977 182.957 52.7617 183.199 51.9883C183.441 51.207 183.805 50.5273 184.289 49.9492C184.773 49.3633 185.379 48.9062 186.105 48.5781C186.832 48.25 187.684 48.0859 188.66 48.0859C189.699 48.0859 190.609 48.2852 191.391 48.6836C192.18 49.082 192.797 49.6523 193.242 50.3945C193.695 51.1289 193.926 52 193.934 53.0078H190.758C190.75 52.5859 190.66 52.2031 190.488 51.8594C190.324 51.5156 190.082 51.2422 189.762 51.0391C189.449 50.8281 189.062 50.7227 188.602 50.7227C188.109 50.7227 187.707 50.8281 187.395 51.0391C187.082 51.2422 186.84 51.5234 186.668 51.8828C186.496 52.2344 186.375 52.6367 186.305 53.0898C186.242 53.5352 186.211 54.0039 186.211 54.4961V54.8359C186.211 55.3281 186.242 55.8008 186.305 56.2539C186.367 56.707 186.484 57.1094 186.656 57.4609C186.836 57.8125 187.082 58.0898 187.395 58.293C187.707 58.4961 188.113 58.5977 188.613 58.5977ZM195.352 54.7891V54.543C195.352 53.6133 195.484 52.7578 195.75 51.9766C196.016 51.1875 196.402 50.5039 196.91 49.9258C197.418 49.3477 198.043 48.8984 198.785 48.5781C199.527 48.25 200.379 48.0859 201.34 48.0859C202.301 48.0859 203.156 48.25 203.906 48.5781C204.656 48.8984 205.285 49.3477 205.793 49.9258C206.309 50.5039 206.699 51.1875 206.965 51.9766C207.23 52.7578 207.363 53.6133 207.363 54.543V54.7891C207.363 55.7109 207.23 56.5664 206.965 57.3555C206.699 58.1367 206.309 58.8203 205.793 59.4062C205.285 59.9844 204.66 60.4336 203.918 60.7539C203.176 61.0742 202.324 61.2344 201.363 61.2344C200.402 61.2344 199.547 61.0742 198.797 60.7539C198.055 60.4336 197.426 59.9844 196.91 59.4062C196.402 58.8203 196.016 58.1367 195.75 57.3555C195.484 56.5664 195.352 55.7109 195.352 54.7891ZM198.727 54.543V54.7891C198.727 55.3203 198.773 55.8164 198.867 56.2773C198.961 56.7383 199.109 57.1445 199.312 57.4961C199.523 57.8398 199.797 58.1094 200.133 58.3047C200.469 58.5 200.879 58.5977 201.363 58.5977C201.832 58.5977 202.234 58.5 202.57 58.3047C202.906 58.1094 203.176 57.8398 203.379 57.4961C203.582 57.1445 203.73 56.7383 203.824 56.2773C203.926 55.8164 203.977 55.3203 203.977 54.7891V54.543C203.977 54.0273 203.926 53.543 203.824 53.0898C203.73 52.6289 203.578 52.2227 203.367 51.8711C203.164 51.5117 202.895 51.2305 202.559 51.0273C202.223 50.8242 201.816 50.7227 201.34 50.7227C200.863 50.7227 200.457 50.8242 200.121 51.0273C199.793 51.2305 199.523 51.5117 199.312 51.8711C199.109 52.2227 198.961 52.6289 198.867 53.0898C198.773 53.543 198.727 54.0273 198.727 54.543ZM216.938 57.9648V48.3203H220.312V61H217.137L216.938 57.9648ZM217.312 55.3633L218.309 55.3398C218.309 56.1836 218.211 56.9688 218.016 57.6953C217.82 58.4141 217.527 59.0391 217.137 59.5703C216.746 60.0938 216.254 60.5039 215.66 60.8008C215.066 61.0898 214.367 61.2344 213.562 61.2344C212.945 61.2344 212.375 61.1484 211.852 60.9766C211.336 60.7969 210.891 60.5195 210.516 60.1445C210.148 59.7617 209.859 59.2734 209.648 58.6797C209.445 58.0781 209.344 57.3555 209.344 56.5117V48.3203H212.719V56.5352C212.719 56.9102 212.762 57.2266 212.848 57.4844C212.941 57.7422 213.07 57.9531 213.234 58.1172C213.398 58.2812 213.59 58.3984 213.809 58.4688C214.035 58.5391 214.285 58.5742 214.559 58.5742C215.254 58.5742 215.801 58.4336 216.199 58.1523C216.605 57.8711 216.891 57.4883 217.055 57.0039C217.227 56.5117 217.312 55.9648 217.312 55.3633ZM226.195 51.0273V61H222.82V48.3203H225.984L226.195 51.0273ZM225.703 54.2148H224.789C224.789 53.2773 224.91 52.4336 225.152 51.6836C225.395 50.9258 225.734 50.2812 226.172 49.75C226.609 49.2109 227.129 48.8008 227.73 48.5195C228.34 48.2305 229.02 48.0859 229.77 48.0859C230.363 48.0859 230.906 48.1719 231.398 48.3438C231.891 48.5156 232.312 48.7891 232.664 49.1641C233.023 49.5391 233.297 50.0352 233.484 50.6523C233.68 51.2695 233.777 52.0234 233.777 52.9141V61H230.379V52.9023C230.379 52.3398 230.301 51.9023 230.145 51.5898C229.988 51.2773 229.758 51.0586 229.453 50.9336C229.156 50.8008 228.789 50.7344 228.352 50.7344C227.898 50.7344 227.504 50.8242 227.168 51.0039C226.84 51.1836 226.566 51.4336 226.348 51.7539C226.137 52.0664 225.977 52.4336 225.867 52.8555C225.758 53.2773 225.703 53.7305 225.703 54.2148ZM242.555 48.3203V50.7109H235.172V48.3203H242.555ZM237 45.1914H240.375V57.1797C240.375 57.5469 240.422 57.8281 240.516 58.0234C240.617 58.2188 240.766 58.3555 240.961 58.4336C241.156 58.5039 241.402 58.5391 241.699 58.5391C241.91 58.5391 242.098 58.5312 242.262 58.5156C242.434 58.4922 242.578 58.4688 242.695 58.4453L242.707 60.9297C242.418 61.0234 242.105 61.0977 241.77 61.1523C241.434 61.207 241.062 61.2344 240.656 61.2344C239.914 61.2344 239.266 61.1133 238.711 60.8711C238.164 60.6211 237.742 60.2227 237.445 59.6758C237.148 59.1289 237 58.4102 237 57.5195V45.1914Z" fill="#888888"/>
<path d="M113.18 109.93C113.18 109.398 113.102 108.922 112.945 108.5C112.789 108.062 112.5 107.656 112.078 107.281C111.656 106.906 111.047 106.531 110.25 106.156C109.469 105.766 108.438 105.359 107.156 104.938C105.656 104.438 104.211 103.875 102.82 103.25C101.43 102.609 100.188 101.867 99.0938 101.023C98 100.164 97.1328 99.1641 96.4922 98.0234C95.8516 96.8672 95.5312 95.5234 95.5312 93.9922C95.5312 92.5234 95.8594 91.2031 96.5156 90.0312C97.1719 88.8438 98.0859 87.8359 99.2578 87.0078C100.445 86.1641 101.836 85.5234 103.43 85.0859C105.023 84.6328 106.766 84.4062 108.656 84.4062C111.156 84.4062 113.359 84.8438 115.266 85.7188C117.188 86.5781 118.688 87.8047 119.766 89.3984C120.859 90.9766 121.406 92.8438 121.406 95H113.227C113.227 94.1406 113.047 93.3828 112.688 92.7266C112.344 92.0703 111.82 91.5547 111.117 91.1797C110.414 90.8047 109.531 90.6172 108.469 90.6172C107.438 90.6172 106.57 90.7734 105.867 91.0859C105.164 91.3984 104.633 91.8203 104.273 92.3516C103.914 92.8672 103.734 93.4375 103.734 94.0625C103.734 94.5781 103.875 95.0469 104.156 95.4688C104.453 95.875 104.867 96.2578 105.398 96.6172C105.945 96.9766 106.602 97.3203 107.367 97.6484C108.148 97.9766 109.023 98.2969 109.992 98.6094C111.805 99.1875 113.414 99.8359 114.82 100.555C116.242 101.258 117.438 102.062 118.406 102.969C119.391 103.859 120.133 104.875 120.633 106.016C121.148 107.156 121.406 108.445 121.406 109.883C121.406 111.414 121.109 112.773 120.516 113.961C119.922 115.148 119.07 116.156 117.961 116.984C116.852 117.797 115.523 118.414 113.977 118.836C112.43 119.258 110.703 119.469 108.797 119.469C107.047 119.469 105.32 119.25 103.617 118.812C101.93 118.359 100.398 117.672 99.0234 116.75C97.6484 115.812 96.5469 114.617 95.7188 113.164C94.9062 111.695 94.5 109.953 94.5 107.938H102.75C102.75 108.938 102.883 109.781 103.148 110.469C103.414 111.156 103.805 111.711 104.32 112.133C104.836 112.539 105.469 112.836 106.219 113.023C106.969 113.195 107.828 113.281 108.797 113.281C109.844 113.281 110.688 113.133 111.328 112.836C111.969 112.523 112.438 112.117 112.734 111.617C113.031 111.102 113.18 110.539 113.18 109.93ZM133.031 99.0547V119H125.133V93.6406H132.539L133.031 99.0547ZM132.094 105.453L130.242 105.5C130.242 103.562 130.477 101.836 130.945 100.32C131.414 98.7891 132.078 97.4922 132.938 96.4297C133.797 95.3672 134.82 94.5625 136.008 94.0156C137.211 93.4531 138.547 93.1719 140.016 93.1719C141.188 93.1719 142.258 93.3438 143.227 93.6875C144.211 94.0312 145.055 94.5859 145.758 95.3516C146.477 96.1172 147.023 97.1328 147.398 98.3984C147.789 99.6484 147.984 101.195 147.984 103.039V119H140.039V103.016C140.039 102 139.898 101.227 139.617 100.695C139.336 100.148 138.93 99.7734 138.398 99.5703C137.867 99.3672 137.219 99.2656 136.453 99.2656C135.641 99.2656 134.953 99.4219 134.391 99.7344C133.828 100.047 133.375 100.484 133.031 101.047C132.703 101.594 132.461 102.242 132.305 102.992C132.164 103.742 132.094 104.562 132.094 105.453ZM165.539 112.625V102.172C165.539 101.453 165.438 100.836 165.234 100.32C165.031 99.8047 164.711 99.4062 164.273 99.125C163.836 98.8281 163.25 98.6797 162.516 98.6797C161.922 98.6797 161.414 98.7812 160.992 98.9844C160.57 99.1875 160.25 99.4922 160.031 99.8984C159.812 100.305 159.703 100.82 159.703 101.445H151.805C151.805 100.273 152.062 99.1875 152.578 98.1875C153.109 97.1719 153.859 96.2891 154.828 95.5391C155.812 94.7891 156.984 94.2109 158.344 93.8047C159.719 93.3828 161.25 93.1719 162.938 93.1719C164.953 93.1719 166.75 93.5078 168.328 94.1797C169.922 94.8516 171.18 95.8594 172.102 97.2031C173.023 98.5312 173.484 100.203 173.484 102.219V112.602C173.484 114.258 173.578 115.516 173.766 116.375C173.953 117.219 174.219 117.961 174.562 118.602V119H166.641C166.266 118.219 165.984 117.266 165.797 116.141C165.625 115 165.539 113.828 165.539 112.625ZM166.5 103.508L166.547 107.727H163.055C162.32 107.727 161.695 107.828 161.18 108.031C160.68 108.234 160.273 108.516 159.961 108.875C159.664 109.219 159.445 109.609 159.305 110.047C159.18 110.484 159.117 110.945 159.117 111.43C159.117 111.898 159.227 112.32 159.445 112.695C159.68 113.055 159.992 113.336 160.383 113.539C160.773 113.742 161.211 113.844 161.695 113.844C162.57 113.844 163.312 113.68 163.922 113.352C164.547 113.008 165.023 112.594 165.352 112.109C165.68 111.625 165.844 111.172 165.844 110.75L167.578 113.984C167.266 114.609 166.906 115.242 166.5 115.883C166.109 116.523 165.617 117.117 165.023 117.664C164.445 118.195 163.734 118.633 162.891 118.977C162.047 119.305 161.023 119.469 159.82 119.469C158.258 119.469 156.82 119.148 155.508 118.508C154.211 117.867 153.172 116.977 152.391 115.836C151.609 114.68 151.219 113.352 151.219 111.852C151.219 110.539 151.453 109.367 151.922 108.336C152.406 107.305 153.133 106.43 154.102 105.711C155.07 104.992 156.305 104.445 157.805 104.07C159.305 103.695 161.07 103.508 163.102 103.508H166.5ZM185.836 98.5156V128.75H177.938V93.6406H185.297L185.836 98.5156ZM201.398 106.016V106.508C201.398 108.352 201.188 110.062 200.766 111.641C200.344 113.219 199.719 114.594 198.891 115.766C198.062 116.938 197.031 117.852 195.797 118.508C194.578 119.148 193.164 119.469 191.555 119.469C190.039 119.469 188.734 119.133 187.641 118.461C186.547 117.789 185.633 116.859 184.898 115.672C184.164 114.484 183.57 113.125 183.117 111.594C182.664 110.062 182.305 108.445 182.039 106.742V106.109C182.305 104.281 182.664 102.586 183.117 101.023C183.57 99.4453 184.164 98.0703 184.898 96.8984C185.633 95.7266 186.539 94.8125 187.617 94.1562C188.711 93.5 190.016 93.1719 191.531 93.1719C193.141 93.1719 194.555 93.4766 195.773 94.0859C197.008 94.6953 198.039 95.5703 198.867 96.7109C199.711 97.8359 200.344 99.1875 200.766 100.766C201.188 102.344 201.398 104.094 201.398 106.016ZM193.5 106.508V106.016C193.5 105.031 193.43 104.133 193.289 103.32C193.148 102.492 192.922 101.773 192.609 101.164C192.312 100.555 191.914 100.086 191.414 99.7578C190.914 99.4297 190.297 99.2656 189.562 99.2656C188.719 99.2656 188.008 99.3984 187.43 99.6641C186.867 99.9141 186.414 100.305 186.07 100.836C185.742 101.352 185.508 102 185.367 102.781C185.242 103.547 185.188 104.445 185.203 105.477V107.398C185.172 108.586 185.289 109.633 185.555 110.539C185.82 111.43 186.281 112.125 186.938 112.625C187.594 113.125 188.484 113.375 189.609 113.375C190.359 113.375 190.984 113.203 191.484 112.859C191.984 112.5 192.383 112.008 192.68 111.383C192.977 110.742 193.188 110.008 193.312 109.18C193.438 108.352 193.5 107.461 193.5 106.508ZM218.203 111.875C218.203 111.438 218.055 111.062 217.758 110.75C217.477 110.422 216.977 110.125 216.258 109.859C215.539 109.578 214.531 109.297 213.234 109.016C212 108.75 210.836 108.398 209.742 107.961C208.664 107.523 207.719 106.992 206.906 106.367C206.094 105.742 205.453 105 204.984 104.141C204.531 103.281 204.305 102.297 204.305 101.188C204.305 100.109 204.531 99.0938 204.984 98.1406C205.453 97.1719 206.133 96.3203 207.023 95.5859C207.93 94.8359 209.031 94.25 210.328 93.8281C211.625 93.3906 213.102 93.1719 214.758 93.1719C217.039 93.1719 219.008 93.5234 220.664 94.2266C222.32 94.9141 223.594 95.8828 224.484 97.1328C225.391 98.3672 225.844 99.7969 225.844 101.422H217.945C217.945 100.781 217.836 100.234 217.617 99.7812C217.414 99.3281 217.078 98.9844 216.609 98.75C216.141 98.5 215.516 98.375 214.734 98.375C214.188 98.375 213.688 98.4766 213.234 98.6797C212.797 98.8828 212.445 99.1641 212.18 99.5234C211.914 99.8828 211.781 100.305 211.781 100.789C211.781 101.133 211.859 101.445 212.016 101.727C212.188 101.992 212.445 102.242 212.789 102.477C213.133 102.695 213.57 102.898 214.102 103.086C214.633 103.258 215.273 103.414 216.023 103.555C217.727 103.867 219.32 104.312 220.805 104.891C222.289 105.469 223.492 106.289 224.414 107.352C225.352 108.414 225.82 109.844 225.82 111.641C225.82 112.766 225.562 113.805 225.047 114.758C224.531 115.695 223.789 116.523 222.82 117.242C221.852 117.945 220.688 118.492 219.328 118.883C217.969 119.273 216.438 119.469 214.734 119.469C212.312 119.469 210.266 119.039 208.594 118.18C206.922 117.305 205.656 116.211 204.797 114.898C203.953 113.57 203.531 112.227 203.531 110.867H210.891C210.922 111.648 211.109 112.289 211.453 112.789C211.812 113.289 212.289 113.656 212.883 113.891C213.477 114.125 214.164 114.242 214.945 114.242C215.664 114.242 216.258 114.141 216.727 113.938C217.211 113.734 217.578 113.461 217.828 113.117C218.078 112.758 218.203 112.344 218.203 111.875ZM237.258 83V119H229.359V83H237.258ZM236.32 105.453L234.469 105.5C234.469 103.719 234.688 102.078 235.125 100.578C235.562 99.0781 236.188 97.7734 237 96.6641C237.812 95.5547 238.789 94.6953 239.93 94.0859C241.07 93.4766 242.336 93.1719 243.727 93.1719C244.977 93.1719 246.117 93.3516 247.148 93.7109C248.195 94.0703 249.094 94.6484 249.844 95.4453C250.609 96.2422 251.195 97.2812 251.602 98.5625C252.023 99.8438 252.234 101.406 252.234 103.25V119H244.289V103.203C244.289 102.172 244.141 101.375 243.844 100.812C243.562 100.234 243.156 99.8359 242.625 99.6172C242.094 99.3828 241.445 99.2656 240.68 99.2656C239.758 99.2656 239.008 99.4219 238.43 99.7344C237.852 100.047 237.406 100.484 237.094 101.047C236.797 101.594 236.594 102.242 236.484 102.992C236.375 103.742 236.32 104.562 236.32 105.453ZM255.633 106.578V106.086C255.633 104.227 255.898 102.516 256.43 100.953C256.961 99.375 257.742 98.0078 258.773 96.8516C259.805 95.6953 261.078 94.7969 262.594 94.1562C264.109 93.5 265.859 93.1719 267.844 93.1719C269.844 93.1719 271.602 93.5 273.117 94.1562C274.648 94.7969 275.93 95.6953 276.961 96.8516C277.992 98.0078 278.773 99.375 279.305 100.953C279.836 102.516 280.102 104.227 280.102 106.086V106.578C280.102 108.422 279.836 110.133 279.305 111.711C278.773 113.273 277.992 114.641 276.961 115.812C275.93 116.969 274.656 117.867 273.141 118.508C271.625 119.148 269.875 119.469 267.891 119.469C265.906 119.469 264.148 119.148 262.617 118.508C261.086 117.867 259.805 116.969 258.773 115.812C257.742 114.641 256.961 113.273 256.43 111.711C255.898 110.133 255.633 108.422 255.633 106.578ZM263.531 106.086V106.578C263.531 107.531 263.602 108.422 263.742 109.25C263.883 110.078 264.117 110.805 264.445 111.43C264.773 112.039 265.219 112.516 265.781 112.859C266.344 113.203 267.047 113.375 267.891 113.375C268.719 113.375 269.406 113.203 269.953 112.859C270.516 112.516 270.961 112.039 271.289 111.43C271.617 110.805 271.852 110.078 271.992 109.25C272.133 108.422 272.203 107.531 272.203 106.578V106.086C272.203 105.164 272.133 104.297 271.992 103.484C271.852 102.656 271.617 101.93 271.289 101.305C270.961 100.664 270.516 100.164 269.953 99.8047C269.391 99.4453 268.688 99.2656 267.844 99.2656C267.016 99.2656 266.32 99.4453 265.758 99.8047C265.211 100.164 264.773 100.664 264.445 101.305C264.117 101.93 263.883 102.656 263.742 103.484C263.602 104.297 263.531 105.164 263.531 106.086ZM296.977 93.6406V99.125H281.695V93.6406H296.977ZM284.906 87.3359H292.805V110.727C292.805 111.398 292.883 111.922 293.039 112.297C293.195 112.656 293.461 112.914 293.836 113.07C294.227 113.211 294.742 113.281 295.383 113.281C295.836 113.281 296.211 113.273 296.508 113.258C296.805 113.227 297.086 113.188 297.352 113.141V118.789C296.68 119.008 295.977 119.172 295.242 119.281C294.508 119.406 293.727 119.469 292.898 119.469C291.211 119.469 289.766 119.203 288.562 118.672C287.375 118.141 286.469 117.305 285.844 116.164C285.219 115.023 284.906 113.539 284.906 111.711V87.3359ZM313.406 111.875C313.406 111.438 313.258 111.062 312.961 110.75C312.68 110.422 312.18 110.125 311.461 109.859C310.742 109.578 309.734 109.297 308.438 109.016C307.203 108.75 306.039 108.398 304.945 107.961C303.867 107.523 302.922 106.992 302.109 106.367C301.297 105.742 300.656 105 300.188 104.141C299.734 103.281 299.508 102.297 299.508 101.188C299.508 100.109 299.734 99.0938 300.188 98.1406C300.656 97.1719 301.336 96.3203 302.227 95.5859C303.133 94.8359 304.234 94.25 305.531 93.8281C306.828 93.3906 308.305 93.1719 309.961 93.1719C312.242 93.1719 314.211 93.5234 315.867 94.2266C317.523 94.9141 318.797 95.8828 319.688 97.1328C320.594 98.3672 321.047 99.7969 321.047 101.422H313.148C313.148 100.781 313.039 100.234 312.82 99.7812C312.617 99.3281 312.281 98.9844 311.812 98.75C311.344 98.5 310.719 98.375 309.938 98.375C309.391 98.375 308.891 98.4766 308.438 98.6797C308 98.8828 307.648 99.1641 307.383 99.5234C307.117 99.8828 306.984 100.305 306.984 100.789C306.984 101.133 307.062 101.445 307.219 101.727C307.391 101.992 307.648 102.242 307.992 102.477C308.336 102.695 308.773 102.898 309.305 103.086C309.836 103.258 310.477 103.414 311.227 103.555C312.93 103.867 314.523 104.312 316.008 104.891C317.492 105.469 318.695 106.289 319.617 107.352C320.555 108.414 321.023 109.844 321.023 111.641C321.023 112.766 320.766 113.805 320.25 114.758C319.734 115.695 318.992 116.523 318.023 117.242C317.055 117.945 315.891 118.492 314.531 118.883C313.172 119.273 311.641 119.469 309.938 119.469C307.516 119.469 305.469 119.039 303.797 118.18C302.125 117.305 300.859 116.211 300 114.898C299.156 113.57 298.734 112.227 298.734 110.867H306.094C306.125 111.648 306.312 112.289 306.656 112.789C307.016 113.289 307.492 113.656 308.086 113.891C308.68 114.125 309.367 114.242 310.148 114.242C310.867 114.242 311.461 114.141 311.93 113.938C312.414 113.734 312.781 113.461 313.031 113.117C313.281 112.758 313.406 112.344 313.406 111.875Z" fill="black"/>
<path d="M1134 0H1348C1356.28 0 1363 6.71573 1363 15V148C1363 156.284 1356.28 163 1348 163H1134V0Z" fill="#1F1D1F"/>
<path fill-rule="evenodd" clip-rule="evenodd" d="M1202.75 46.5018C1202.75 45.3973 1203.65 44.5018 1204.75 44.5018H1292.25C1293.35 44.5018 1294.25 45.3973 1294.25 46.5018V116.498C1294.25 117.603 1293.35 118.498 1292.25 118.498H1204.75C1203.65 118.498 1202.75 117.603 1202.75 116.498V46.5018ZM1206.75 48.5018V52.9963H1290.25V48.5018H1206.75ZM1290.25 56.9963H1235.19V114.498H1290.25V56.9963ZM1231.19 114.498V56.9963H1206.75V114.498H1231.19Z" fill="white"/>
<path fill-rule="evenodd" clip-rule="evenodd" d="M1209.72 62.3022C1209.72 61.1976 1210.62 60.3022 1211.72 60.3022H1225.72C1226.83 60.3022 1227.72 61.1976 1227.72 62.3022V81.6974C1227.72 82.802 1226.83 83.6974 1225.72 83.6974H1211.72C1210.62 83.6974 1209.72 82.802 1209.72 81.6974V62.3022ZM1213.72 64.3022V79.6974H1223.72V64.3022H1213.72ZM1239.33 63.1982C1239.33 62.0936 1240.22 61.1982 1241.33 61.1982H1284.25C1285.36 61.1982 1286.25 62.0936 1286.25 63.1982V109.407C1286.25 110.511 1285.36 111.407 1284.25 111.407H1241.33C1240.22 111.407 1239.33 110.511 1239.33 109.407V63.1982ZM1243.33 65.1982V107.407H1282.25V65.1982H1243.33ZM1209.56 93.4381C1209.56 92.3336 1210.46 91.4381 1211.56 91.4381H1220.48C1221.59 91.4381 1222.48 92.3336 1222.48 93.4381C1222.48 94.5427 1221.59 95.4381 1220.48 95.4381H1211.56C1210.46 95.4381 1209.56 94.5427 1209.56 93.4381ZM1209.56 100.438C1209.56 99.3335 1210.46 98.4381 1211.56 98.4381H1226.1C1227.21 98.4381 1228.1 99.3335 1228.1 100.438C1228.1 101.543 1227.21 102.438 1226.1 102.438H1211.56C1210.46 102.438 1209.56 101.543 1209.56 100.438ZM1209.56 107.438C1209.56 106.334 1210.46 105.438 1211.56 105.438H1220.48C1221.59 105.438 1222.48 106.334 1222.48 107.438C1222.48 108.543 1221.59 109.438 1220.48 109.438H1211.56C1210.46 109.438 1209.56 108.543 1209.56 107.438Z" fill="white"/>
</svg>
